HIERARCHY
ROOT root
{
	OFFSET	0	13.1	24.9
	CHANNELS 6  Xposition Yposition Zposition Xrotation Yrotation Zrotation
	JOINT spine_1
	{
		OFFSET	0	9.99999	0
		CHANNELS 3  Xrotation Yrotation Zrotation
		JOINT spine_2
		{
			OFFSET	0	112	-10
			CHANNELS 3  Xrotation Yrotation Zrotation
			JOINT spine_3
			{
				OFFSET	0	206.5	19.3
				CHANNELS 3  Xrotation Yrotation Zrotation
				JOINT spine_4
				{
					OFFSET	0	110.4	14.6
					CHANNELS 3  Xrotation Yrotation Zrotation
					JOINT neck_1
					{
						OFFSET	0	71.8	-50.3
						CHANNELS 3  Xrotation Yrotation Zrotation
						JOINT neck_2
						{
							OFFSET	0	86.2	-25.8
							CHANNELS 3  Xrotation Yrotation Zrotation
							JOINT head_ee
							{
								OFFSET	0	179.8	-8.7
								CHANNELS 3  Xrotation Yrotation Zrotation
								End Site
								{
									OFFSET	1	0	0
								}
							}
						}
					}
					JOINT left_clavicle
					{
						OFFSET	-43.2	22.4	-70.8
						CHANNELS 3  Xrotation Yrotation Zrotation
						JOINT left_shoulder
						{
							OFFSET	-93.9	-5.79999	48.7
							CHANNELS 3  Xrotation Yrotation Zrotation
							JOINT left_elbow
							{
								OFFSET	-291.4	-30.8	15.2
								CHANNELS 3  Xrotation Yrotation Zrotation
								JOINT left_lowarm_twist
								{
									OFFSET	-110.7	-3.89999	13.6
									CHANNELS 3  Xrotation Yrotation Zrotation
									JOINT left_hand
									{
										OFFSET	-110.7	-3.89999	13.6
										CHANNELS 3  Xrotation Yrotation Zrotation
										JOINT left_ee
										{
											OFFSET	-80.8	-5.10001	12.1
											CHANNELS 3  Xrotation Yrotation Zrotation
											End Site
											{
												OFFSET	1	0	0
											}
										}
									}
								}
							}
						}
					}
					JOINT right_clavicle
					{
						OFFSET	43.2	22.4	-70.8
						CHANNELS 3  Xrotation Yrotation Zrotation
						JOINT right_shoulder
						{
							OFFSET	93.9	-5.79999	48.7
							CHANNELS 3  Xrotation Yrotation Zrotation
							JOINT right_elbow
							{
								OFFSET	291.4	-30.8	15.2
								CHANNELS 3  Xrotation Yrotation Zrotation
								JOINT right_lowarm_twist
								{
									OFFSET	110.7	-3.89999	13.6
									CHANNELS 3  Xrotation Yrotation Zrotation
									JOINT right_hand
									{
										OFFSET	110.7	-3.89999	13.6
										CHANNELS 3  Xrotation Yrotation Zrotation
										JOINT right_ee
										{
											OFFSET	80.8	-5.10001	12.1
											CHANNELS 3  Xrotation Yrotation Zrotation
											End Site
											{
												OFFSET	1	0	0
											}
										}
									}
								}
							}
						}
					}
				}
			}
		}
	}
	JOINT left_hip
	{
		OFFSET	-82.8	-127.5	0.300001
		CHANNELS 3  Xrotation Yrotation Zrotation
		JOINT left_knee
		{
			OFFSET	-28.2	-396.7	2.2
			CHANNELS 3  Xrotation Yrotation Zrotation
			JOINT left_ankle
			{
				OFFSET	-11.7	-411.3	35.4
				CHANNELS 3  Xrotation Yrotation Zrotation
				JOINT left_toes
				{
					OFFSET	0	-60	-88.6
					CHANNELS 3  Xrotation Yrotation Zrotation
					JOINT left_foot_ee
					{
						OFFSET	-22.5	-16.5	-42.2
						CHANNELS 3  Xrotation Yrotation Zrotation
						End Site
						{
							OFFSET	1	0	0
						}
					}
				}
			}
		}
	}
	JOINT right_hip
	{
		OFFSET	82.8	-127.5	0.300001
		CHANNELS 3  Xrotation Yrotation Zrotation
		JOINT right_knee
		{
			OFFSET	28.2	-396.7	2.2
			CHANNELS 3  Xrotation Yrotation Zrotation
			JOINT right_ankle
			{
				OFFSET	11.7	-411.3	35.4
				CHANNELS 3  Xrotation Yrotation Zrotation
				JOINT right_toes
				{
					OFFSET	0	-60	-88.6
					CHANNELS 3  Xrotation Yrotation Zrotation
					JOINT right_foot_ee
					{
						OFFSET	22.5	-16.5	-42.2
						CHANNELS 3  Xrotation Yrotation Zrotation
						End Site
						{
							OFFSET	1	0	0
						}
					}
				}
			}
		}
	}
}
MOTION
Frames: 14
Frame Time: 0.02
2833.59451468 692.9 -1634.4458232 10.8159597958 69.4599757017 -19.1416214163 0.742148 0.791298 4.85582 0.755132 0.481086 4.8962 0.800507 -0.490978 4.89522 0.767198 0.287331 4.91134 -19.8095 4.80892 4.96854 -19.7998 6.73196 6.6013 -0.0 0.0 -0.0 -0.90823 16.8777 0.569553 -7.82398 -36.0354 52.0228 1.73431 -40.6631 0.642668 -23.7996 -1.41508 2.67195 1.06375 16.4041 13.3289 -0.0 0.0 -0.0 10.3497 10.771 -20.5909 -16.1146 12.2526 -69.6709 0.601277 16.5866 -0.0876455 5.43138 -0.159455 0.675193 1.71877 6.90163 -8.70546 0.0 0.0 0.0 11.0582 -9.26024 14.454 -29.4141 0.0660631 4.46421 27.7489 23.5 -3.81071 -30.6844 0.0 0.0 -0.0 0.0 -0.0 22.3427 24.8542 4.32729 -67.6506 3.08022 -9.31133 31.4444 -25.9752 4.29796 -5.3581 0.0 0.0 0.0 0.0 0.0 
2834.05094843 692.9 -1630.20790317 11.1830026408 70.1544814075 -19.53269401 0.742148 0.791298 4.85582 0.755132 0.481086 4.8962 0.800507 -0.490978 4.89522 0.767198 0.287331 4.91134 -19.8095 4.80892 4.96854 -19.7998 6.73196 6.6013 -0.0 0.0 -0.0 -0.90823 16.8777 0.569553 -7.82398 -36.0354 52.0228 1.73431 -40.6631 0.642668 -23.7996 -1.41508 2.67195 1.06375 16.4041 13.3289 -0.0 0.0 -0.0 10.3497 10.771 -20.5909 -16.1146 12.2526 -69.6709 0.601277 16.5866 -0.0876455 5.43138 -0.159455 0.675193 1.71877 6.90163 -8.70546 0.0 0.0 0.0 11.0582 -9.26024 14.454 -29.4141 0.0660631 4.46421 27.7489 23.5 -3.81071 -30.6844 0.0 0.0 -0.0 0.0 -0.0 22.3427 24.8542 4.32729 -67.6506 3.08022 -9.31133 31.4444 -25.9752 4.29796 -5.3581 0.0 0.0 0.0 0.0 0.0 
2825.01854017 696.766 -1610.81711573 8.60913077045 71.2144092783 -16.9697652886 0.880777 0.7998 4.67734 0.892805 0.500887 4.71863 0.937618 -0.42515 4.72604 0.90661 0.325714 4.73391 -19.0325 4.67016 4.27112 -19.0381 6.75571 5.84132 -0.0 0.0 -0.0 -0.725124 17.4245 0.926709 -5.14596 -34.5013 51.9592 2.1508 -46.8089 0.931024 -24.616 -1.48261 2.75185 0.927266 16.3575 12.4509 -0.0 0.0 -0.0 10.513 11.6681 -20.9366 -17.6633 12.1483 -68.5046 0.477318 13.3034 -0.0556644 5.02248 -0.149687 0.623872 1.92122 8.45962 -9.42093 0.0 0.0 0.0 9.36872 -6.9158 13.8698 -25.3374 0.194236 3.85182 27.6703 23.7398 -3.80632 -32.277 0.0 0.0 -0.0 0.0 -0.0 25.1768 22.606 4.51647 -65.6681 2.84211 -9.11897 33.515 -26.3412 4.54019 -5.0136 0.0 0.0 0.0 0.0 0.0 
2817.89916334 701.65 -1589.81335109 5.34149819276 72.7880257884 -13.7370824067 0.999409 0.709135 4.51519 1.01065 0.420689 4.55106 1.04692 -0.462752 4.54698 1.01817 0.260396 4.56301 -20.4288 3.83279 2.34207 -20.469 6.22013 3.80235 -0.0 0.0 -0.0 0.255485 19.9276 2.69918 -2.37524 -32.5742 52.3664 2.68682 -53.072 1.34189 -27.6955 -1.74745 3.04446 0.780344 15.553 11.2384 -0.0 0.0 -0.0 10.4448 12.6344 -20.7634 -17.5158 10.7741 -67.7105 0.324856 9.14209 -0.0259721 6.19697 -0.176756 0.77146 1.89907 9.34214 -8.88682 0.0 0.0 0.0 7.19826 -5.44658 14.5265 -18.2965 0.312023 2.7785 26.8813 24.1677 -3.72093 -34.246 0.0 0.0 -0.0 0.0 -0.0 29.2349 19.0775 5.69032 -64.6809 2.72606 -9.02017 34.259 -24.6667 4.57353 -6.81783 0.0 0.0 0.0 0.0 0.0 
2801.49044666 704.424 -1578.90220311 5.64278235275 73.5151871256 -14.2412802156 1.04053 0.628559 4.32866 1.05088 0.35211 4.3598 1.08011 -0.490835 4.3464 1.05381 0.20108 4.36935 -23.9717 2.60861 0.052021 -24.0192 5.0102 1.31882 -0.0 0.0 -0.0 0.429066 22.2285 3.18154 -1.04908 -32.6259 53.0307 3.19649 -57.7135 1.76173 -32.3212 -2.17397 3.45642 0.606849 13.3702 9.33664 -0.0 0.0 -0.0 9.90485 12.91 -19.56 -18.1507 10.047 -67.6319 0.229748 6.49308 -0.0130321 6.89897 -0.191489 0.859923 1.7474 7.21224 -8.7685 0.0 0.0 0.0 6.05857 -8.0052 16.6002 -16.7364 0.320218 2.53928 28.459 23.6965 -3.89838 -33.721 0.0 0.0 -0.0 0.0 -0.0 36.1547 16.1826 3.43874 -60.9748 2.30616 -8.63196 31.1656 -24.606 4.2309 -7.97395 0.0 0.0 0.0 0.0 0.0 
2784.04720903 701.14 -1562.31265232 5.64760019545 75.1788106691 -14.4004766734 1.119 0.444479 4.21258 1.12885 0.175767 4.23228 1.14368 -0.635187 4.18811 1.11922 0.0336016 4.23579 -26.9537 1.72783 -2.14848 -26.9804 4.1557 -1.07361 -0.0 0.0 -0.0 0.691726 23.558 3.66933 0.1238 -31.2223 53.3115 3.66894 -61.164 2.16873 -35.3065 -2.4664 3.7036 0.470047 11.7219 7.8369 -0.0 0.0 -0.0 9.32206 13.0686 -18.2727 -18.6363 9.38757 -68.0449 0.219764 6.21315 -0.0119273 7.70179 -0.207007 0.961302 1.64184 5.69699 -8.69066 0.0 0.0 0.0 5.00741 -8.39986 17.5473 -15.6914 0.322063 2.37897 29.8173 24.0306 -4.06345 -33.4002 0.0 0.0 -0.0 0.0 -0.0 39.3476 15.4746 3.14044 -59.1827 2.11238 -8.43479 28.5961 -24.8984 3.94106 -9.24369 0.0 0.0 0.0 0.0 0.0 
2748.908717 696.713 -1551.16429608 4.99090043535 74.7979508256 -13.836968535 1.36453 0.353872 3.89297 1.37295 0.105628 3.90757 1.38112 -0.626053 3.85861 1.36035 -0.00928404 3.90899 -27.9956 1.48855 -4.85611 -27.9822 4.65042 -3.71891 -0.0 0.0 -0.0 0.744926 21.7596 3.58351 1.29798 -31.3674 53.8556 3.75667 -61.7317 2.2458 -36.5005 -2.58691 3.79816 0.371188 10.2209 6.61811 -0.0 0.0 -0.0 7.80327 13.3082 -14.9588 -20.4216 8.07385 -69.5634 0.291073 8.20505 -0.0208773 8.64519 -0.223424 1.08069 1.67134 4.31383 -9.4718 0.0 0.0 0.0 2.75365 -8.61912 19.4744 -14.0772 0.319167 2.13133 31.2508 27.2846 -4.31259 -32.7825 0.0 0.0 -0.0 0.0 -0.0 38.9972 12.8595 4.43312 -46.0169 0.893232 -6.81917 20.9775 -25.6576 3.00805 -11.6455 0.0 0.0 0.0 0.0 0.0 
2706.55611054 688.135 -1559.56151625 4.53751600669 74.1996167013 -12.6367487193 1.2608 0.249953 3.49855 1.26761 0.0269641 3.50736 1.27014 -0.635244 3.44953 1.25355 -0.0828325 3.50648 -28.4434 1.24743 -6.73644 -28.3743 4.82584 -5.61704 -0.0 0.0 -0.0 0.643774 19.4746 3.22712 3.23841 -32.5384 54.5267 3.94471 -62.8813 2.4123 -36.532 -2.59012 3.80062 0.357757 8.79007 5.96644 -0.0 0.0 -0.0 7.11589 13.5352 -13.4663 -21.4944 6.72504 -70.3677 0.281827 7.94781 -0.0195784 9.49115 -0.236471 1.18796 1.74446 3.40311 -10.3498 0.0 0.0 0.0 -0.569972 -8.96759 19.0094 -12.5376 0.309905 1.8953 32.6988 28.0447 -4.50126 -32.7391 0.0 0.0 -0.0 0.0 -0.0 38.0536 11.6489 4.90275 -35.5958 0.210607 -5.37194 13.9042 -26.073 2.05359 -12.9427 0.0 0.0 0.0 0.0 0.0 
2688.70407294 683.571 -1562.13581371 6.36892406278 74.6295366443 -14.2999071563 1.17655 0.30601 3.40316 1.18299 0.0889668 3.41571 1.18935 -0.561679 3.37044 1.1735 -0.0226554 3.4168 -28.8461 1.68791 -5.93061 -28.8196 5.33757 -4.60845 -0.0 0.0 -0.0 0.540018 18.7292 3.00063 4.27885 -33.0754 55.3073 4.00977 -63.2592 2.47031 -36.5089 -2.58777 3.79882 0.363887 8.0677 5.719 -0.0 0.0 -0.0 6.87787 12.4329 -13.0148 -22.2017 6.16999 -70.7046 0.290466 8.18817 -0.0207907 10.3169 -0.247678 1.29284 1.79583 3.43749 -10.6871 0.0 0.0 0.0 -1.97838 -9.22577 19.2102 -12.6179 0.310545 1.90759 32.0293 27.1414 -4.39752 -33.3359 0.0 0.0 -0.0 0.0 -0.0 37.0585 10.8996 4.3505 -28.8587 -0.0860842 -4.38134 11.2555 -26.996 1.68636 -13.7335 0.0 0.0 0.0 0.0 0.0 
2664.87724926 679.007 -1571.53671631 7.80136738799 73.2602344275 -15.6010596563 1.1589 0.471222 3.22348 1.16464 0.26526 3.2469 1.18085 -0.356666 3.23814 1.16626 0.158935 3.25383 -26.3161 2.50755 -3.97286 -26.3635 6.40921 -2.37613 -0.0 0.0 -0.0 0.374124 18.6136 2.73953 5.49112 -33.098 57.7752 4.03637 -63.4109 2.49408 -37.4221 -2.68127 3.86943 0.463946 8.11405 6.38899 -0.0 0.0 -0.0 6.71851 11.931 -12.7008 -23.3075 6.52125 -70.6997 0.302025 8.50935 -0.0224692 10.5521 -0.250593 1.32274 2.1406 3.30328 -13.1135 0.0 0.0 0.0 -2.87183 -8.66488 19.3582 -16.2016 0.321527 2.45725 38.0079 23.8089 -4.93687 -36.2461 0.0 0.0 -0.0 0.0 -0.0 36.1937 10.5205 4.14666 -21.9488 -0.267396 -3.33704 12.8635 -26.9303 1.91639 -15.7272 0.0 0.0 0.0 0.0 0.0 
2648.34514693 673.043 -1574.14134368 6.11811415288 73.1997234729 -13.935444432 1.55248 0.576379 3.06011 1.55761 0.380584 3.09054 1.57876 -0.19192 3.10795 1.56541 0.30109 3.09929 -24.8393 2.88639 -3.48789 -24.907 7.04295 -1.78764 -0.0 0.0 -0.0 -0.355583 18.4103 1.61612 5.94659 -32.9623 59.073 4.17017 -64.1501 2.61412 -36.5102 -2.5879 3.79892 0.623242 6.8998 6.95106 -0.0 0.0 -0.0 6.87603 11.3896 -13.0628 -24.4007 5.7635 -70.458 0.284083 8.01061 -0.0198916 11.151 -0.257462 1.39894 2.42171 3.14348 -15.1299 0.0 0.0 0.0 -2.34813 -9.27547 19.327 -18.7024 0.308823 2.8407 38.7745 22.3037 -4.97026 -38.5926 0.0 0.0 -0.0 0.0 -0.0 35.958 8.86438 3.35408 -14.4049 -0.320319 -2.18159 12.9503 -24.3791 1.90117 -17.5474 0.0 0.0 0.0 0.0 0.0 
2623.93826923 667.906 -1581.9782597 3.0606200827 73.4157582355 -10.7360380288 1.73139 0.513032 2.95149 1.73618 0.324267 2.97812 1.75333 -0.217639 2.98779 1.74097 0.256743 2.98469 -22.9919 3.23184 -2.86706 -23.0727 7.54326 -1.13632 -0.0 0.0 -0.0 -0.659667 18.6492 1.18782 6.22091 -32.7249 60.2616 4.28588 -64.7591 2.71851 -35.4961 -2.4854 3.71878 0.69991 6.38094 7.2504 -0.0 0.0 -0.0 6.97747 11.149 -13.2898 -25.1973 5.58235 -70.0292 0.286067 8.06581 -0.0201688 11.449 -0.260583 1.43687 2.64742 3.11605 -16.7206 0.0 0.0 0.0 -2.46114 -9.2938 19.2847 -20.3499 0.291314 3.09288 40.2377 20.5841 -5.06448 -40.234 0.0 0.0 -0.0 0.0 -0.0 35.9468 8.20912 3.51724 -8.25747 -0.250887 -1.24134 13.7115 -21.7777 1.98264 -18.9247 0.0 0.0 0.0 0.0 0.0 
2586.1628548 653.608 -1584.087996 -1.14068612383 75.4061497182 -7.23594496782 2.04582 0.551883 2.76219 2.04999 0.37507 2.79168 2.06821 -0.118507 2.81425 2.05731 0.32726 2.79768 -19.2503 3.56125 -2.52136 -19.3243 8.17387 -0.902384 -0.0 0.0 -0.0 -1.50636 18.4682 -0.11518 6.19764 -33.6426 62.3212 4.19639 -64.2905 2.63773 -33.0569 -2.24483 3.51874 0.864529 5.56937 8.01789 -0.0 0.0 -0.0 7.12789 10.8296 -13.6239 -26.3226 4.63375 -70.1921 0.239292 6.76036 -0.0141335 12.0089 -0.265913 1.50818 2.83596 2.44924 -18.3267 0.0 0.0 0.0 -2.90145 -8.83453 19.7424 -21.9832 0.266807 3.34229 41.713 19.5069 -5.17199 -40.2313 0.0 0.0 -0.0 0.0 -0.0 36.8192 8.10974 4.25388 -0.0999494 -0.00410278 -0.0147895 11.736 -19.8661 1.69547 -20.9999 0.0 0.0 0.0 0.0 0.0 
2584.79118094 653.608 -1594.21288365 -1.07048032667 74.4256777877 -7.30865336614 2.04582 0.551883 2.76219 2.04999 0.37507 2.79168 2.06821 -0.118507 2.81425 2.05731 0.32726 2.79768 -19.2503 3.56125 -2.52136 -19.3243 8.17387 -0.902384 -0.0 0.0 -0.0 -1.50636 18.4682 -0.11518 6.19764 -33.6426 62.3212 4.19639 -64.2905 2.63773 -33.0569 -2.24483 3.51874 0.864529 5.56937 8.01789 -0.0 0.0 -0.0 7.12789 10.8296 -13.6239 -26.3226 4.63375 -70.1921 0.239292 6.76036 -0.0141335 12.0089 -0.265913 1.50818 2.83596 2.44924 -18.3267 0.0 0.0 0.0 -2.90145 -8.83453 19.7424 -21.9832 0.266807 3.34229 41.713 19.5069 -5.17199 -40.2313 0.0 0.0 -0.0 0.0 -0.0 36.8192 8.10974 4.25388 -0.0999494 -0.00410278 -0.0147895 11.736 -19.8661 1.69547 -20.9999 0.0 0.0 0.0 0.0 0.0 
